<svg xmlns="http://www.w3.org/2000/svg" xmlns:xlink="http://www.w3.org/1999/xlink" viewBox="0 0 199 145"><defs><style>.cls-1{fill:#3eff8b;}.cls-1,.cls-2,.cls-3{stroke:#1d1d1b;stroke-linejoin:round;}.cls-2{fill:#474747;}.cls-3{fill:url(#Ikke-navngivet_forløb_21);}</style><linearGradient id="Ikke-navngivet_forløb_21" x1="53.36" y1="56.48" x2="101.84" y2="80.27" gradientUnits="userSpaceOnUse"><stop offset="0.43"/><stop offset="0.44" stop-color="#050505"/><stop offset="0.51" stop-color="#1d1d1d"/><stop offset="0.58" stop-color="#303030"/><stop offset="0.67" stop-color="#3d3d3d"/><stop offset="0.78" stop-color="#454545"/><stop offset="1" stop-color="#474747"/></linearGradient></defs><g id="Lag_2" data-name="Lag 2"><g id="Lag_4" data-name="Lag 4"><g id="og"><polygon class="cls-1" points="198.5 117.5 198.5 144.5 99.5 144.5 99.5 0.5 126.5 0.5 126.5 117.5 198.5 117.5"/><polygon class="cls-2" points="99.5 0.5 27.5 144.5 0.5 144.5 72.5 0.5 99.5 0.5"/><polygon class="cls-3" points="99.5 0.5 99.5 144.5 72.5 144.5 72.5 108.5 45.5 108.5 54.5 90.5 72.5 90.5 72.5 54.5 99.5 0.5"/><polygon class="cls-1" points="72.5 54.5 72.5 90.5 54.5 90.5 72.5 54.5"/><polygon class="cls-1" points="72.5 0.5 0.5 144.5 0.5 0.5 72.5 0.5"/><rect class="cls-2" x="126.5" y="0.5" width="72" height="117"/><polygon class="cls-1" points="72.5 108.5 72.5 144.5 27.5 144.5 45.5 108.5 72.5 108.5"/></g></g></g></svg>